# Blender 4.2.0
# www.blender.org
mtllib recta.mtl
o Road_2X_Straight_City_Road_mat_0
v -146.304001 0.204472 -31.042076
v 146.304031 0.204472 -31.042076
v 146.304031 0.204472 -36.478912
v -146.304001 0.204472 -36.478912
v -146.304001 -0.000000 -31.042076
v 146.304031 -0.000000 -31.042076
v 146.304031 0.204472 -31.042076
v -146.304001 0.204472 -31.042076
v 146.304031 -0.000000 -36.478912
v -146.304001 -0.000000 -36.478912
v -146.304001 0.204472 -36.478912
v 146.304031 0.204472 -36.478912
v -146.304001 -0.000000 -63.521118
v -146.304001 -0.000000 -36.478912
v 146.304031 -0.000000 -36.478912
v 146.304031 -0.000000 -63.521118
v -146.304001 0.204472 -68.957954
v -146.304001 0.204472 -63.521118
v 146.304031 0.204472 -63.521118
v 146.304031 0.204472 -68.957954
v -146.304001 -0.000000 -68.957954
v -146.304001 0.204472 -68.957954
v 146.304031 0.204472 -68.957954
v 146.304031 -0.000000 -68.957954
v 146.304031 -0.000000 -63.521118
v 146.304031 0.204472 -63.521118
v -146.304001 0.204472 -63.521118
v -146.304001 -0.000000 -63.521118
vn -0.0000 1.0000 -0.0000
vn -0.0000 -0.0000 1.0000
vn -0.0000 -0.0000 -1.0000
vt 3.999930 -0.000000
vt -2.999927 0.000000
vt -3.000070 0.143392
vt 4.000073 0.143392
vt 3.999927 -0.000000
vt -2.999924 0.000000
vt -3.000077 0.143392
vt 4.000080 0.143392
vt 4.000075 0.856607
vt -3.000075 0.856607
vt 3.999924 1.000000
vt 4.000068 0.856607
vt -3.000069 0.856607
vt -2.999927 1.000000
vt 3.999920 1.000000
vt -2.999923 1.000000
s 0
usemtl City_Road_mat
f 1/1/1 2/2/1 3/3/1
f 1/1/1 3/3/1 4/4/1
f 5/5/2 6/6/2 7/2/2
f 5/5/2 7/2/2 8/1/2
f 9/7/3 10/8/3 11/4/3
f 9/7/3 11/4/3 12/3/3
f 13/9/1 14/8/1 15/7/1
f 13/9/1 15/7/1 16/10/1
f 17/11/1 18/12/1 19/13/1
f 17/11/1 19/13/1 20/14/1
f 21/15/3 22/11/3 23/14/3
f 21/15/3 23/14/3 24/16/3
f 25/10/2 26/13/2 27/12/2
f 25/10/2 27/12/2 28/9/2
