{
  "accessors": [
    {
      "bufferView": 2,
      "componentType": 5126,
      "count": 44,
      "max": [
        7315.2001953125,
        20.44718360900879,
        1895.791015625
      ],
      "min": [
        -7315.2001953125,
        -2.102961224213426e-13,
        -1895.7919921875
      ],
      "type": "VEC3"
    },
    {
      "bufferView": 2,
      "byteOffset": 528,
      "componentType": 5126,
      "count": 44,
      "max": [
        1.0,
        1.0,
        1.0
      ],
      "min": [
        -1.0,
        0.0,
        -1.0
      ],
      "type": "VEC3"
    },
    {
      "bufferView": 1,
      "componentType": 5126,
      "count": 44,
      "max": [
        2.0001962184906006,
        1.0
      ],
      "min": [
        -1.0001946687698364,
        0.0
      ],
      "type": "VEC2"
    },
    {
      "bufferView": 0,
      "componentType": 5125,
      "count": 66,
      "type": "SCALAR"
    },
    {
      "bufferView": 2,
      "byteOffset": 1056,
      "componentType": 5126,
      "count": 28,
      "max": [
        14630.4033203125,
        20.44718360900879,
        1895.79296875
      ],
      "min": [
        -14630.400390625,
        -4.199062430230993e-13,
        -1895.7939453125
      ],
      "type": "VEC3"
    },
    {
      "bufferView": 2,
      "byteOffset": 1392,
      "componentType": 5126,
      "count": 28,
      "max": [
        0.0,
        1.0,
        1.0
      ],
      "min": [
        0.0,
        0.0,
        -1.0
      ],
      "type": "VEC3"
    },
    {
      "bufferView": 1,
      "byteOffset": 352,
      "componentType": 5126,
      "count": 28,
      "max": [
        4.00007963180542,
        1.000000238418579
      ],
      "min": [
        -3.0000767707824707,
        -2.384185791015625e-07
      ],
      "type": "VEC2"
    },
    {
      "bufferView": 0,
      "byteOffset": 264,
      "componentType": 5125,
      "count": 42,
      "type": "SCALAR"
    },
    {
      "bufferView": 2,
      "byteOffset": 1728,
      "componentType": 5126,
      "count": 28,
      "max": [
        29260.80078125,
        20.44718360900879,
        1895.794921875
      ],
      "min": [
        -29260.798828125,
        -4.199062430230993e-13,
        -1895.79296875
      ],
      "type": "VEC3"
    },
    {
      "bufferView": 2,
      "byteOffset": 2064,
      "componentType": 5126,
      "count": 28,
      "max": [
        0.0,
        1.0,
        1.0
      ],
      "min": [
        0.0,
        0.0,
        -1.0
      ],
      "type": "VEC3"
    },
    {
      "bufferView": 1,
      "byteOffset": 576,
      "componentType": 5126,
      "count": 28,
      "max": [
        8.000043869018555,
        1.0000004768371582
      ],
      "min": [
        -7.000039100646973,
        -1.1920928955078125e-07
      ],
      "type": "VEC2"
    },
    {
      "bufferView": 0,
      "byteOffset": 432,
      "componentType": 5125,
      "count": 42,
      "type": "SCALAR"
    },
    {
      "bufferView": 2,
      "byteOffset": 2400,
      "componentType": 5126,
      "count": 87,
      "max": [
        1895.79296875,
        10.223672866821289,
        1895.79296875
      ],
      "min": [
        -1895.79296875,
        -10.223672866821289,
        -1895.79296875
      ],
      "type": "VEC3"
    },
    {
      "bufferView": 2,
      "byteOffset": 3444,
      "componentType": 5126,
      "count": 87,
      "max": [
        1.0,
        1.0,
        1.0
      ],
      "min": [
        -1.0,
        0.0,
        -1.0
      ],
      "type": "VEC3"
    },
    {
      "bufferView": 1,
      "byteOffset": 800,
      "componentType": 5126,
      "count": 87,
      "max": [
        0.9999999403953552,
        0.14339295029640198
      ],
      "min": [
        0.0,
        0.0001549865846754983
      ],
      "type": "VEC2"
    },
    {
      "bufferView": 0,
      "byteOffset": 600,
      "componentType": 5125,
      "count": 117,
      "type": "SCALAR"
    },
    {
      "bufferView": 2,
      "byteOffset": 4488,
      "componentType": 5126,
      "count": 4,
      "max": [
        1895.79296875,
        -10.223612785339355,
        1352.109375
      ],
      "min": [
        -1352.109375,
        -10.22365951538086,
        -1895.79296875
      ],
      "type": "VEC3"
    },
    {
      "bufferView": 2,
      "byteOffset": 4536,
      "componentType": 5126,
      "count": 4,
      "max": [
        -5.578930650784741e-09,
        1.0,
        8.516910732225824e-09
      ],
      "min": [
        -5.578930650784741e-09,
        1.0,
        8.516910732225824e-09
      ],
      "type": "VEC3"
    },
    {
      "bufferView": 1,
      "byteOffset": 1496,
      "componentType": 5126,
      "count": 4,
      "max": [
        0.9990247488021851,
        1.0001376867294312
      ],
      "min": [
        0.18427547812461853,
        0.17965401709079742
      ],
      "type": "VEC2"
    },
    {
      "bufferView": 0,
      "byteOffset": 1068,
      "componentType": 5125,
      "count": 6,
      "type": "SCALAR"
    },
    {
      "bufferView": 2,
      "byteOffset": 4584,
      "componentType": 5126,
      "count": 4,
      "max": [
        1895.79296875,
        -10.223612785339355,
        1352.111328125
      ],
      "min": [
        -1895.79296875,
        -10.2236328125,
        -1895.791015625
      ],
      "type": "VEC3"
    },
    {
      "bufferView": 2,
      "byteOffset": 4632,
      "componentType": 5126,
      "count": 4,
      "max": [
        -1.5881658120363686e-15,
        1.0,
        6.097780502756223e-09
      ],
      "min": [
        -1.5881661296737238e-15,
        1.0,
        6.097780058667013e-09
      ],
      "type": "VEC3"
    },
    {
      "bufferView": 1,
      "byteOffset": 1528,
      "componentType": 5126,
      "count": 4,
      "max": [
        0.9990247488021851,
        1.0003442764282227
      ],
      "min": [
        0.00192627205979079,
        0.17965401709079742
      ],
      "type": "VEC2"
    },
    {
      "bufferView": 0,
      "byteOffset": 1092,
      "componentType": 5125,
      "count": 6,
      "type": "SCALAR"
    },
    {
      "bufferView": 2,
      "byteOffset": 4680,
      "componentType": 5126,
      "count": 138,
      "max": [
        1895.79296875,
        10.223672866821289,
        1895.794921875
      ],
      "min": [
        -1895.79296875,
        -10.223672866821289,
        -1895.7939453125
      ],
      "type": "VEC3"
    },
    {
      "bufferView": 2,
      "byteOffset": 6336,
      "componentType": 5126,
      "count": 138,
      "max": [
        0.9961913228034973,
        1.0,
        1.0
      ],
      "min": [
        -0.9961950182914734,
        -4.634745710063726e-05,
        -1.0
      ],
      "type": "VEC3"
    },
    {
      "bufferView": 1,
      "byteOffset": 1560,
      "componentType": 5126,
      "count": 138,
      "max": [
        0.9999999403953552,
        0.14339295029640198
      ],
      "min": [
        0.0,
        0.0001549865846754983
      ],
      "type": "VEC2"
    },
    {
      "bufferView": 0,
      "byteOffset": 1116,
      "componentType": 5125,
      "count": 180,
      "type": "SCALAR"
    },
    {
      "bufferView": 2,
      "byteOffset": 7992,
      "componentType": 5126,
      "count": 4,
      "max": [
        1895.791015625,
        -10.2236328125,
        1895.791015625
      ],
      "min": [
        -1895.79296875,
        -10.223652839660645,
        -1895.791015625
      ],
      "type": "VEC3"
    },
    {
      "bufferView": 2,
      "byteOffset": 8040,
      "componentType": 5126,
      "count": 4,
      "max": [
        -1.3604367690023137e-15,
        1.0,
        5.43436762256988e-09
      ],
      "min": [
        -1.360436874881432e-15,
        1.0,
        5.43436717848067e-09
      ],
      "type": "VEC3"
    },
    {
      "bufferView": 1,
      "byteOffset": 2664,
      "componentType": 5126,
      "count": 4,
      "max": [
        0.9990247488021851,
        1.0003442764282227
      ],
      "min": [
        0.0,
        0.0002630415838211775
      ],
      "type": "VEC2"
    },
    {
      "bufferView": 0,
      "byteOffset": 1836,
      "componentType": 5125,
      "count": 6,
      "type": "SCALAR"
    },
    {
      "bufferView": 2,
      "byteOffset": 8088,
      "componentType": 5126,
      "count": 252,
      "max": [
        1895.791015625,
        10.223652839660645,
        1895.794921875
      ],
      "min": [
        -1895.79296875,
        -10.223652839660645,
        -1895.7939453125
      ],
      "type": "VEC3"
    },
    {
      "bufferView": 2,
      "byteOffset": 11112,
      "componentType": 5126,
      "count": 252,
      "max": [
        0.9961913228034973,
        1.0,
        0.9915826320648193
      ],
      "min": [
        -0.9962690472602844,
        -4.634666765923612e-05,
        -0.9915713667869568
      ],
      "type": "VEC3"
    },
    {
      "bufferView": 1,
      "byteOffset": 2696,
      "componentType": 5126,
      "count": 252,
      "max": [
        0.6419072151184082,
        0.14339295029640198
      ],
      "min": [
        0.39190709590911865,
        0.00035387277603149414
      ],
      "type": "VEC2"
    },
    {
      "bufferView": 0,
      "byteOffset": 1860,
      "componentType": 5125,
      "count": 324,
      "type": "SCALAR"
    },
    {
      "bufferView": 2,
      "byteOffset": 14136,
      "componentType": 5126,
      "count": 644,
      "max": [
        20523.796875,
        20.447185516357422,
        18628.00390625
      ],
      "min": [
        -20523.794921875,
        -5.983718295160534e-12,
        -1883.2904052734375
      ],
      "type": "VEC3"
    },
    {
      "bufferView": 2,
      "byteOffset": 21864,
      "componentType": 5126,
      "count": 644,
      "max": [
        0.9975641369819641,
        1.0,
        1.0
      ],
      "min": [
        -0.9975641369819641,
        0.0,
        -1.0
      ],
      "type": "VEC3"
    },
    {
      "bufferView": 1,
      "byteOffset": 4712,
      "componentType": 5126,
      "count": 644,
      "max": [
        8.000043869018555,
        1.0000004768371582
      ],
      "min": [
        -7.000039100646973,
        -1.1920928955078125e-07
      ],
      "type": "VEC2"
    },
    {
      "bufferView": 0,
      "byteOffset": 3156,
      "componentType": 5125,
      "count": 1890,
      "type": "SCALAR"
    },
    {
      "bufferView": 2,
      "byteOffset": 29592,
      "componentType": 5126,
      "count": 364,
      "max": [
        11209.798828125,
        20.447185516357422,
        9314.0029296875
      ],
      "min": [
        -11209.7958984375,
        -3.6227626801221824e-12,
        -1873.6739501953125
      ],
      "type": "VEC3"
    },
    {
      "bufferView": 2,
      "byteOffset": 33960,
      "componentType": 5126,
      "count": 364,
      "max": [
        0.992114782333374,
        1.0,
        1.0
      ],
      "min": [
        -0.992114782333374,
        0.0,
        -1.0
      ],
      "type": "VEC3"
    },
    {
      "bufferView": 1,
      "byteOffset": 9864,
      "componentType": 5126,
      "count": 364,
      "max": [
        4.00007963180542,
        1.000000238418579
      ],
      "min": [
        -3.0000767707824707,
        -2.384185791015625e-07
      ],
      "type": "VEC2"
    },
    {
      "bufferView": 0,
      "byteOffset": 10716,
      "componentType": 5125,
      "count": 1050,
      "type": "SCALAR"
    },
    {
      "bufferView": 2,
      "byteOffset": 38328,
      "componentType": 5126,
      "count": 240,
      "max": [
        6552.79296875,
        20.447185516357422,
        4657.0009765625
      ],
      "min": [
        -6552.79296875,
        -2.232673898192039e-12,
        -1859.8951416015625
      ],
      "type": "VEC3"
    },
    {
      "bufferView": 2,
      "byteOffset": 41208,
      "componentType": 5126,
      "count": 240,
      "max": [
        1.0,
        1.0,
        1.0
      ],
      "min": [
        -1.0,
        0.0,
        -1.0
      ],
      "type": "VEC3"
    },
    {
      "bufferView": 1,
      "byteOffset": 12776,
      "componentType": 5126,
      "count": 240,
      "max": [
        2.0001962184906006,
        1.0
      ],
      "min": [
        -1.0001946687698364,
        0.0
      ],
      "type": "VEC2"
    },
    {
      "bufferView": 0,
      "byteOffset": 14916,
      "componentType": 5125,
      "count": 654,
      "type": "SCALAR"
    }
  ],
  "asset": {
    "extras": {
      "author": "Mini Loft Games (https://sketchfab.com/SquadCell)",
      "license": "CC-BY-4.0 (http://creativecommons.org/licenses/by/4.0/)",
      "source": "https://sketchfab.com/3d-models/modular-roads-pack-99023ee0b2564395b47b40d22f51f7c2",
      "title": "Modular Roads Pack"
    },
    "generator": "Sketchfab-15.27.0",
    "version": "2.0"
  },
  "bufferViews": [
    {
      "buffer": 0,
      "byteLength": 17532,
      "name": "floatBufferViews",
      "target": 34963
    },
    {
      "buffer": 0,
      "byteLength": 14696,
      "byteOffset": 17532,
      "byteStride": 8,
      "name": "floatBufferViews",
      "target": 34962
    },
    {
      "buffer": 0,
      "byteLength": 44088,
      "byteOffset": 32228,
      "byteStride": 12,
      "name": "floatBufferViews",
      "target": 34962
    }
  ],
  "buffers": [
    {
      "byteLength": 76316,
      "uri": "scene.bin"
    }
  ],
  "extensionsUsed": [
    "KHR_materials_specular"
  ],
  "images": [
    {
      "uri": "textures/City_Road_mat_baseColor.jpeg"
    },
    {
      "uri": "textures/City_Intersection_mat_baseColor.jpeg"
    }
  ],
  "materials": [
    {
      "doubleSided": true,
      "extensions": {
        "KHR_materials_specular": {
          "specularColorFactor": [
            1.0,
            1.0,
            1.0
          ],
          "specularFactor": 0.0
        }
      },
      "name": "City_Road_mat",
      "pbrMetallicRoughness": {
        "baseColorTexture": {
          "index": 0
        },
        "metallicFactor": 0.0
      }
    },
    {
      "doubleSided": true,
      "extensions": {
        "KHR_materials_specular": {
          "specularColorFactor": [
            1.0,
            1.0,
            1.0
          ],
          "specularFactor": 0.0
        }
      },
      "name": "City_Intersection_mat",
      "pbrMetallicRoughness": {
        "baseColorTexture": {
          "index": 1
        },
        "metallicFactor": 0.0
      }
    }
  ],
  "meshes": [
    {
      "name": "Road_1X_Straight_City_Road_mat_0",
      "primitives": [
        {
          "attributes": {
            "NORMAL": 1,
            "POSITION": 0,
            "TEXCOORD_0": 2
          },
          "indices": 3,
          "material": 0,
          "mode": 4
        }
      ]
    },
    {
      "name": "Road_2X_Straight_City_Road_mat_0",
      "primitives": [
        {
          "attributes": {
            "NORMAL": 5,
            "POSITION": 4,
            "TEXCOORD_0": 6
          },
          "indices": 7,
          "material": 0,
          "mode": 4
        }
      ]
    },
    {
      "name": "Road_4X_Straight_City_Road_mat_0",
      "primitives": [
        {
          "attributes": {
            "NORMAL": 9,
            "POSITION": 8,
            "TEXCOORD_0": 10
          },
          "indices": 11,
          "material": 0,
          "mode": 4
        }
      ]
    },
    {
      "name": "Road_L_Intersection_City_Road_mat_0",
      "primitives": [
        {
          "attributes": {
            "NORMAL": 13,
            "POSITION": 12,
            "TEXCOORD_0": 14
          },
          "indices": 15,
          "material": 0,
          "mode": 4
        }
      ]
    },
    {
      "name": "Road_L_Intersection_City_Intersection_mat_0",
      "primitives": [
        {
          "attributes": {
            "NORMAL": 17,
            "POSITION": 16,
            "TEXCOORD_0": 18
          },
          "indices": 19,
          "material": 1,
          "mode": 4
        }
      ]
    },
    {
      "name": "Road_T_Intersection_City_Intersection_mat_0",
      "primitives": [
        {
          "attributes": {
            "NORMAL": 21,
            "POSITION": 20,
            "TEXCOORD_0": 22
          },
          "indices": 23,
          "material": 1,
          "mode": 4
        }
      ]
    },
    {
      "name": "Road_T_Intersection_City_Road_mat_0",
      "primitives": [
        {
          "attributes": {
            "NORMAL": 25,
            "POSITION": 24,
            "TEXCOORD_0": 26
          },
          "indices": 27,
          "material": 0,
          "mode": 4
        }
      ]
    },
    {
      "name": "Road_X_Intersection_City_Intersection_mat_0",
      "primitives": [
        {
          "attributes": {
            "NORMAL": 29,
            "POSITION": 28,
            "TEXCOORD_0": 30
          },
          "indices": 31,
          "material": 1,
          "mode": 4
        }
      ]
    },
    {
      "name": "Road_X_Intersection_City_Road_mat_0",
      "primitives": [
        {
          "attributes": {
            "NORMAL": 33,
            "POSITION": 32,
            "TEXCOORD_0": 34
          },
          "indices": 35,
          "material": 0,
          "mode": 4
        }
      ]
    },
    {
      "name": "Road_4X_HalfCircle_City_Road_mat_0",
      "primitives": [
        {
          "attributes": {
            "NORMAL": 37,
            "POSITION": 36,
            "TEXCOORD_0": 38
          },
          "indices": 39,
          "material": 0,
          "mode": 4
        }
      ]
    },
    {
      "name": "Road_2X_HalfCircle_City_Road_mat_0",
      "primitives": [
        {
          "attributes": {
            "NORMAL": 41,
            "POSITION": 40,
            "TEXCOORD_0": 42
          },
          "indices": 43,
          "material": 0,
          "mode": 4
        }
      ]
    },
    {
      "name": "Road_1X_HalfCircle_City_Road_mat_0",
      "primitives": [
        {
          "attributes": {
            "NORMAL": 45,
            "POSITION": 44,
            "TEXCOORD_0": 46
          },
          "indices": 47,
          "material": 0,
          "mode": 4
        }
      ]
    }
  ],
  "nodes": [
    {
      "children": [
        1
      ],
      "matrix": [
        1.0,
        0.0,
        0.0,
        0.0,
        0.0,
        2.220446049250313e-16,
        -1.0,
        0.0,
        0.0,
        1.0,
        2.220446049250313e-16,
        0.0,
        0.0,
        0.0,
        0.0,
        1.0
      ],
      "name": "Sketchfab_model"
    },
    {
      "children": [
        2
      ],
      "matrix": [
        1.0,
        0.0,
        0.0,
        0.0,
        0.0,
        0.0,
        1.0,
        0.0,
        0.0,
        -1.0,
        0.0,
        0.0,
        0.0,
        0.0,
        0.0,
        1.0
      ],
      "name": "44d681719dd5406c893cfafcb4a2585f.fbx"
    },
    {
      "children": [
        3,
        5,
        7,
        9,
        12,
        15,
        18,
        20,
        22
      ],
      "name": "RootNode"
    },
    {
      "children": [
        4
      ],
      "matrix": [
        0.009999999776482582,
        0.0,
        0.0,
        0.0,
        0.0,
        0.009999999776482582,
        0.0,
        0.0,
        0.0,
        0.0,
        0.009999999776482582,
        0.0,
        0.0,
        0.0,
        0.0,
        1.0
      ],
      "name": "Road_1X_Straight"
    },
    {
      "mesh": 0,
      "name": "Road_1X_Straight_City_Road_mat_0"
    },
    {
      "children": [
        6
      ],
      "matrix": [
        0.009999999776482582,
        0.0,
        0.0,
        0.0,
        0.0,
        0.009999999776482582,
        0.0,
        0.0,
        0.0,
        0.0,
        0.009999999776482582,
        0.0,
        0.0,
        0.0,
        -50.0,
        1.0
      ],
      "name": "Road_2X_Straight"
    },
    {
      "mesh": 1,
      "name": "Road_2X_Straight_City_Road_mat_0"
    },
    {
      "children": [
        8
      ],
      "matrix": [
        0.009999999776482582,
        0.0,
        0.0,
        0.0,
        0.0,
        0.009999999776482582,
        0.0,
        0.0,
        0.0,
        0.0,
        0.009999999776482582,
        0.0,
        -2.989863395690918,
        0.0,
        -100.0,
        1.0
      ],
      "name": "Road_4X_Straight"
    },
    {
      "mesh": 2,
      "name": "Road_4X_Straight_City_Road_mat_0"
    },
    {
      "children": [
        10,
        11
      ],
      "matrix": [
        0.009999999776482582,
        0.0,
        0.0,
        0.0,
        0.0,
        0.009999999776482582,
        0.0,
        0.0,
        0.0,
        0.0,
        0.009999999776482582,
        0.0,
        0.0,
        0.0,
        150.0,
        1.0
      ],
      "name": "Road_L_Intersection"
    },
    {
      "mesh": 3,
      "name": "Road_L_Intersection_City_Road_mat_0"
    },
    {
      "mesh": 4,
      "name": "Road_L_Intersection_City_Intersection_mat_0"
    },
    {
      "children": [
        13,
        14
      ],
      "matrix": [
        0.009999999776482582,
        0.0,
        0.0,
        0.0,
        0.0,
        0.009999999776482582,
        0.0,
        0.0,
        0.0,
        0.0,
        0.009999999776482582,
        0.0,
        0.0,
        0.0,
        100.0,
        1.0
      ],
      "name": "Road_T_Intersection"
    },
    {
      "mesh": 5,
      "name": "Road_T_Intersection_City_Intersection_mat_0"
    },
    {
      "mesh": 6,
      "name": "Road_T_Intersection_City_Road_mat_0"
    },
    {
      "children": [
        16,
        17
      ],
      "matrix": [
        0.009999999776482582,
        0.0,
        0.0,
        0.0,
        0.0,
        0.009999999776482582,
        0.0,
        0.0,
        0.0,
        0.0,
        0.009999999776482582,
        0.0,
        0.0,
        0.0,
        50.0,
        1.0
      ],
      "name": "Road_X_Intersection"
    },
    {
      "mesh": 7,
      "name": "Road_X_Intersection_City_Intersection_mat_0"
    },
    {
      "mesh": 8,
      "name": "Road_X_Intersection_City_Road_mat_0"
    },
    {
      "children": [
        19
      ],
      "matrix": [
        0.009999999776482582,
        0.0,
        0.0,
        0.0,
        0.0,
        0.009999999776482582,
        0.0,
        0.0,
        0.0,
        0.0,
        0.009999999776482582,
        0.0,
        -2.989863395690918,
        0.0,
        -400.0,
        1.0
      ],
      "name": "Road_4X_HalfCircle"
    },
    {
      "mesh": 9,
      "name": "Road_4X_HalfCircle_City_Road_mat_0"
    },
    {
      "children": [
        21
      ],
      "matrix": [
        0.009999999776482582,
        0.0,
        0.0,
        0.0,
        0.0,
        0.009999999776482582,
        0.0,
        0.0,
        0.0,
        0.0,
        0.009999999776482582,
        0.0,
        0.0,
        0.0,
        -300.0,
        1.0
      ],
      "name": "Road_2X_HalfCircle"
    },
    {
      "mesh": 10,
      "name": "Road_2X_HalfCircle_City_Road_mat_0"
    },
    {
      "children": [
        23
      ],
      "matrix": [
        0.009999999776482582,
        0.0,
        0.0,
        0.0,
        0.0,
        0.009999999776482582,
        0.0,
        0.0,
        0.0,
        0.0,
        0.009999999776482582,
        0.0,
        0.0,
        0.0,
        -200.0,
        1.0
      ],
      "name": "Road_1X_HalfCircle"
    },
    {
      "mesh": 11,
      "name": "Road_1X_HalfCircle_City_Road_mat_0"
    }
  ],
  "samplers": [
    {
      "magFilter": 9729,
      "minFilter": 9987,
      "wrapS": 10497,
      "wrapT": 10497
    }
  ],
  "scene": 0,
  "scenes": [
    {
      "name": "Sketchfab_Scene",
      "nodes": [
        0
      ]
    }
  ],
  "textures": [
    {
      "sampler": 0,
      "source": 0
    },
    {
      "sampler": 0,
      "source": 1
    }
  ]
}
